<svg id="SvgjsSvg1001" width="550" height="550" xmlns="http://www.w3.org/2000/svg" version="1.1" xmlns:xlink="http://www.w3.org/1999/xlink" xmlns:svgjs="http://svgjs.com/svgjs"><defs id="SvgjsDefs1002"></defs><g id="SvgjsG1008"><svg xmlns="http://www.w3.org/2000/svg" fill="none" viewBox="0 0 3000 3000" width="550" height="550"><path fill="#48c8ff" d="M706.422 1914.99C661.796 2014.51 706.422 2038.76 706.422 2038.76C706.422 2038.76 793.497 2075.3 905.264 2038.76L952.595 2004.28L1037.8 1978.59C1037.8 1978.59 1049.99 1954.92 1000.49 1940.03C1000.49 1940.03 1093.78 1877.83 1193.3 1901.47C1269.55 1919.63 1370.55 1810.85 1419.88 1766.22C1429.77 1757.26 1442.48 1783.51 1452.87 1806.96C1458.87 1820.49 1465.63 1833.68 1473.12 1846.45C1489.23 1873.88 1520.63 1931.51 1520.63 1963.69C1520.63 1963.69 1621.39 1970.81 1630.54 1982.97C1630.54 1982.97 1881.12 1927.18 1961.26 1986.08C2041.4 2044.98 2015.75 2223.46 2015.75 2223.46C2015.75 2223.46 2264.53 2407.43 2481.07 2339.79C2584.13 2317.12 2770.53 2174.38 2685.32 1753.59C2606.24 1606.31 2623.37 1536.71 2470.75 1392.54C2344.49 1264.39 2034.22 1211.24 1866.88 1207.63C1866.88 1207.63 1880.41 1475.64 1654.29 1473.71C1639.45 1473.74 1624.81 1470.23 1611.59 1463.48C1598.37 1456.74 1586.94 1446.94 1578.26 1434.9C1572.69 1427.19 1568.73 1418.45 1566.6 1409.18C1566.6 1409.18 1473.3 1402.43 1420.44 1353.73C1420.44 1353.73 1413.69 1520.11 1347.42 1511.99C1347.42 1511.99 1324.4 1394.32 1250.02 1356.5C1250.17 1356.38 751.048 1815.57 706.422 1914.99Z" class="color48C8FF svgShape"></path><path fill="#00068c" d="M2250.97 1106.13C2257.41 1108.49 2267.21 1099.38 2267.21 1099.38C2281.76 1070.62 2232.04 1035.48 2232.04 1035.48C2246.25 1011.47 2215.46 995.234 2215.46 995.234C2238.47 992.124 2242.52 974.243 2242.52 974.243C2243.88 932.323 2149.87 903.246 2149.87 903.246C2175.56 899.172 2165.42 874.853 2165.42 874.853C2170.8 873.766 2175.65 870.907 2179.21 866.735C2182.77 862.563 2184.82 857.319 2185.05 851.841C2166.79 811.258 2091.04 821.396 2091.04 821.396C2091.04 821.396 2123.16 812.066 2101.18 781.155C2079.19 750.243 1957.28 732.144 1957.28 732.144C1973.42 736.02 1989.95 737.962 2006.54 737.928C2009.99 737.827 2013.34 736.802 2016.25 734.96C2019.16 733.119 2021.52 730.529 2023.09 727.461C2024.66 724.394 2025.37 720.961 2025.16 717.523C2024.94 714.085 2023.81 710.768 2021.87 707.918C2015.66 698.589 1994.85 685.59 1978.93 677.349C1938.5 656.389 1783.82 660.867 1783.82 660.867C1742.46 634.247 1717.86 662.64 1717.86 662.64C1655.48 622.212 1611.35 639.813 1611.35 639.813C1467.15 625.633 1329.1 787.934 1329.1 787.934C1244.92 799.098 1182.94 884.338 1158.68 954.309C1134.43 1024.28 1187.14 1079.04 1187.14 1079.04C1201.35 1178.56 1257.14 1057.28 1257.14 1057.28C1264.76 1051.86 1268.8 1061.69 1268.8 1061.69C1259.16 1100.75 1271.35 1123.58 1271.35 1123.58C1285.53 1189.85 1325.12 1189.5 1325.12 1189.5C1345.99 1259.13 1393.54 1318.75 1414.78 1343.1C1421.76 1351.08 1425.51 1361.38 1425.29 1371.99C1424.6 1406.2 1422.02 1480.83 1412.69 1492.84C1403.92 1504.03 1396.55 1536.37 1393.13 1553.51C1391.26 1562.37 1391.67 1571.56 1394.31 1580.22C1405.57 1615.64 1431.63 1573.32 1431.63 1573.32C1446.5 1599.69 1465.44 1580.75 1465.44 1580.75C1477.63 1594.96 1493.17 1584.14 1493.17 1584.14C1519.55 1601.03 1535.78 1565.2 1535.78 1565.2C1575.68 1575.34 1566.29 1533.67 1566.29 1533.67C1581.84 1533.67 1583.11 1521.91 1583.11 1521.91C1589.89 1494.86 1543.9 1406.85 1543.9 1406.85C1636.54 1415.81 1703.99 1371.46 1727.38 1349.04C1774.64 1303.54 1800.52 1203.09 1800.52 1203.09C1790.88 1312.16 1812.52 1304.72 1812.52 1304.72C1846.51 1315.39 1870.52 1218.83 1870.52 1218.83C1869.49 1234.57 1918.19 1313.18 1918.69 1317.75C1919.19 1322.32 1950.66 1366.45 1981.6 1366.45C2012.55 1366.45 2001.38 1292.87 2001.38 1292.87C2001.38 1295.98 2027.25 1305.5 2027.25 1305.5C2072.22 1321.05 2095.67 1294.24 2095.67 1294.24C2099.06 1306.68 2119.34 1305.07 2119.34 1305.07C2154.85 1298.85 2153.54 1264.82 2153.54 1264.82C2152.95 1258.6 2157.28 1250.33 2165.11 1258.92C2170.52 1264.82 2171.33 1279.88 2175.19 1284.45C2178.84 1288.21 2183.03 1291.4 2187.63 1293.93C2200.59 1301.82 2215.46 1306.02 2230.64 1306.06C2239 1306.06 2247.59 1304.44 2252.84 1299.84C2270.1 1284.88 2249.23 1202.35 2244.23 1195.88C2243.98 1192.05 2250.04 1193.86 2250.04 1193.86C2287.36 1201.45 2291.5 1187.08 2291.9 1168.14C2292.3 1149.2 2250.97 1106.13 2250.97 1106.13ZM1827.32 1018.65C1817.37 1035.88 1796.54 1070.37 1768.24 1085.79C1763.93 1088.19 1760.48 1091.88 1758.39 1096.35C1756.3 1100.81 1755.68 1105.83 1756.61 1110.67C1761.77 1137.8 1764.26 1165.37 1764.07 1192.99C1763.39 1234.13 1757.45 1278.76 1731.14 1310.41C1723.3 1319.83 1715 1328.85 1706.26 1337.44C1687.42 1355.87 1664.03 1368.98 1638.47 1375.41C1609.2 1382.84 1563.64 1390.34 1519.33 1380.98C1519.33 1380.98 1459.81 1366.73 1421.28 1313.46C1421.28 1313.46 1349.75 1219.11 1345.18 1166.37C1345.18 1166.37 1313.4 1097.95 1319.15 1068.28C1319.15 1068.28 1363.09 1106.16 1400.97 1004.04C1400.97 1004.04 1424.63 1033.8 1442.92 1004.04C1442.92 1004.04 1475.39 1032.46 1506.48 981.054C1506.48 981.054 1546.38 1004.72 1566.69 964.136C1566.69 964.136 1609.95 1001.45 1637.69 960.746C1637.69 960.746 1668.79 946.939 1678.36 969.641C1678.91 970.889 1679.75 971.98 1680.83 972.811C1681.91 973.643 1683.18 974.188 1684.52 974.396C1685.87 974.604 1687.24 974.468 1688.52 974.001C1689.8 973.534 1690.94 972.75 1691.83 971.724C1697.58 965.116 1702.46 957.801 1706.35 949.955C1715.39 930.923 1729.07 914.467 1746.13 902.095C1760.56 891.957 1778 883.996 1794.8 887.168L1796.41 887.51C1810.79 890.564 1823.73 898.351 1833.16 909.626C1842.6 920.902 1847.97 935.014 1848.44 949.707C1849.47 975.425 1848.07 988.828 1834.1 1008.08C1831.65 1011.41 1829.44 1015.01 1827.32 1018.65Z" class="color00068C svgShape"></path><path fill="#00068c" d="M2382.43 2364.46C2301.85 2364.46 2224.32 2340.48 2166.32 2316.1C2112.22 2293.51 2060.73 2265.11 2012.76 2231.39L2008 2227.87L2008.84 2222.03C2009.09 2220.28 2032.32 2049.18 1958.28 1993.98C1853.63 1915.96 1639.02 1991.56 1636.85 1992.33L1632.74 1993.8L1628.89 1991.77C1616.07 1985.03 1556.89 1977.03 1522.62 1973.58L1513.67 1972.68V1963.69C1513.67 1942.33 1496.84 1901.5 1467.52 1851.49C1459.85 1838.42 1452.92 1824.92 1446.78 1811.06C1436.51 1787.9 1430.7 1778.78 1427.46 1775.55C1421.62 1780.87 1415.02 1787.12 1408.03 1793.71C1351.3 1847.29 1265.63 1928.27 1193.98 1911.23C1124.57 1894.72 1057.15 1922.58 1026.42 1938.5C1038.15 1944.57 1045.92 1952 1049.62 1960.71C1051.21 1964.25 1052.04 1968.08 1052.04 1971.97C1052.04 1975.85 1051.21 1979.68 1049.62 1983.22L1047.69 1986.95L960.059 2013.39L912.821 2047.81L911.328 2048.31C797.54 2085.63 709.19 2049.59 705.551 2048.03L704.649 2047.6C702.473 2046.41 652.467 2017.62 700.327 1911.04C745.295 1810.91 1225.89 1367.98 1246.41 1349.16L1251.51 1344.5L1257.73 1347.61C1324.84 1381.82 1351.8 1474.18 1358.55 1502.13C1363.79 1501.36 1368.69 1499.05 1372.64 1495.51C1402.59 1470.07 1412.44 1384.27 1413.72 1353.36L1414.59 1331.9L1430.39 1346.46C1479.9 1392.17 1569.55 1399.32 1570.33 1399.32L1577.76 1399.85L1579.32 1407.13C1581.17 1415.09 1584.59 1422.6 1589.39 1429.21C1597.16 1439.96 1607.38 1448.7 1619.2 1454.72C1631.02 1460.73 1644.11 1463.84 1657.37 1463.79C1714.5 1464.26 1760.77 1446.69 1794.55 1411.51C1865.48 1337.63 1860.01 1209.38 1859.85 1208.16L1859.32 1197.15L1870.33 1197.75C2123.6 1211.62 2298.18 1256.83 2419.81 1339.74C2528.84 1414.13 2586.65 1511.56 2650.9 1631.22C2689.99 1708.25 2714.18 1805.06 2719.13 1904.02C2724.19 2006.05 2708.12 2104.07 2673.78 2180.01C2633.36 2269.57 2568.61 2328.13 2486.6 2349.37C2452.84 2359.63 2417.71 2364.71 2382.43 2364.46ZM2029.28 2218.73C2064.32 2243.08 2288.01 2390.55 2481.01 2330.25H2481.47C2557.57 2310.59 2617.84 2255.83 2655.78 2171.86C2722.17 2024.89 2712.53 1796.42 2633.36 1640.43C2521.03 1431.14 2423.76 1250.08 1880 1218.11C1880 1252.32 1873.94 1357.34 1808.98 1425.1C1771.22 1464.44 1720.04 1484.19 1657.22 1483.57C1640.81 1483.58 1624.64 1479.68 1610.04 1472.19C1595.43 1464.71 1582.83 1453.85 1573.25 1440.53C1568.42 1433.73 1564.61 1426.26 1561.93 1418.36C1541 1415.96 1478.53 1406.35 1432.19 1373.33C1428.86 1408.78 1418.17 1482.79 1385.54 1510.56C1380.68 1514.91 1374.93 1518.16 1368.7 1520.1C1362.46 1522.04 1355.88 1522.61 1349.41 1521.79L1342.25 1520.92L1340.89 1513.83C1340.67 1512.74 1319.12 1406.94 1254.71 1368.54C1201.26 1417.95 759.413 1828.04 718.55 1918.97C681.233 2002.38 710.34 2027.1 714.041 2029.81C722.5 2032.92 803.2 2062.09 903.74 2029.81L951.165 1995.26L1032.18 1970.81C1032.03 1969.82 1031.73 1968.86 1031.3 1967.95C1029.41 1963.94 1022.91 1956.2 1000.83 1949.54L980.615 1943.32L998.185 1931.63C1002.13 1928.99 1096.27 1867.29 1198.74 1891.7C1259.88 1906.25 1344.18 1826.61 1394.66 1779.06C1402.52 1771.6 1409.99 1764.57 1416.42 1758.73C1418.28 1756.95 1420.55 1755.66 1423.02 1754.96C1425.49 1754.27 1428.09 1754.18 1430.6 1754.71C1443.04 1757.33 1452.37 1773.62 1465.19 1802.79C1470.91 1816.03 1477.39 1828.92 1484.59 1841.42C1501.32 1869.9 1528.44 1920.31 1532.86 1954.71C1555.18 1957.13 1612.06 1964.04 1633.86 1972.31C1664.71 1961.8 1863.58 1898.67 1970.1 1978.06C2046.04 2034.6 2033.07 2186.14 2029.28 2218.73Z" class="color00068C svgShape"></path><path fill="#00068c" d="M1472.15 1839.98C1471.55 1838.76 1471.3 1837.39 1471.42 1836.03 1471.54 1834.67 1472.03 1833.37 1472.84 1832.27 1494.23 1803.13 1637.41 1610.98 1699.85 1602.55 1750.79 1595.68 1744.88 1633.65 1738.88 1652.93 1736.95 1659.07 1733.66 1664.7 1729.27 1669.41 1713.04 1686.92 1667.63 1738.67 1665.99 1772.04 1663.97 1811.93 1636.97 1928.02 1528.5 1949.79 1527.06 1950.06 1525.56 1949.85 1524.25 1949.17 1522.94 1948.49 1521.9 1947.4 1521.29 1946.06 1512.73 1927.46 1481.14 1858.67 1472.15 1839.98zM2308.69 1291.54C2281.3 1300.15 2105.4 1360.79 2012.02 1521.38 2012.02 1521.38 1978.56 1588.74 1915.61 1601.74 1852.67 1614.74 1707.25 1748.62 1722.21 1815.57 1737.17 1882.53 1872.01 1775.83 1872.01 1775.83 1872.01 1775.83 1968.42 1680.67 2037.36 1685.64 2106.31 1690.62 2210.73 1546.76 2210.73 1546.76 2210.73 1546.76 2289.88 1409.93 2360.88 1415.9 2420.52 1421 2449.41 1394.47 2453.21 1382.41 2453.89 1380.26 2440.77 1367.26 2438.99 1365.92 2423.45 1354.64 2350.49 1302.3 2316.13 1291.51 2313.7 1290.78 2311.11 1290.79 2308.69 1291.54zM2256.95 2073.35C2246.75 2073.41 2236.63 2071.58 2227.09 2067.97 2172.61 2047.1 2037.86 1998.31 1963.91 1995.94 1962.6 1995.9 1961.32 1995.6 1960.14 1995.07 1958.95 1994.53 1957.88 1993.77 1956.98 1992.82 1956.09 1991.87 1955.4 1990.75 1954.93 1989.53 1954.47 1988.31 1954.26 1987.01 1954.3 1985.71 1954.34 1984.41 1954.64 1983.13 1955.17 1981.94 1955.71 1980.75 1956.47 1979.68 1957.42 1978.79 1958.37 1977.89 1959.49 1977.2 1960.71 1976.74 1961.93 1976.28 1963.23 1976.06 1964.53 1976.1 2041.53 1978.56 2178.76 2028.19 2234.21 2049.43 2253.12 2056.65 2274.21 2054.47 2302.63 2042.28L2303.69 2041.63 2310.43 2037.92C2316.04 2035.03 2321.48 2031.82 2326.73 2028.32 2357.11 2007.01 2374.81 1978.18 2379.25 1942.64 2394.43 1821.61 2256.42 1659.34 2255.02 1657.72 2253.3 1655.72 2252.45 1653.13 2252.65 1650.5 2252.85 1647.88 2254.08 1645.44 2256.07 1643.72 2258.07 1642.01 2260.67 1641.16 2263.29 1641.35 2265.92 1641.55 2268.35 1642.79 2270.07 1644.78 2276.01 1651.69 2415.24 1815.32 2398.97 1945.07 2393.78 1986.43 2373.32 2019.92 2338.11 2044.58 2332.26 2048.55 2326.18 2052.17 2319.89 2055.4L2313.67 2058.73C2312.92 2059.31 2312.09 2059.79 2311.21 2060.16 2296.94 2066.38 2277.59 2073.35 2256.95 2073.35z" class="color00068C svgShape"></path><path fill="#00068c" d="M2346.26 1772.69C2345.84 1772.18 2345.32 1771.77 2344.74 1771.46 2344.15 1771.16 2343.51 1770.97 2342.86 1770.91 2342.2 1770.86 2341.54 1770.93 2340.92 1771.13 2340.29 1771.32 2339.7 1771.64 2339.2 1772.07 2321.51 1786.87 2237.35 1852.92 2157.99 1844.68 2068.71 1835.2 1905.13 1800.96 1856.34 1845.4 1823.22 1875.59 1855.72 1898.82 1884.05 1915.9 1898.59 1924.63 1914.54 1930.75 1931.19 1933.99 1996.06 1946.74 2190.46 1980.3 2228.34 1979.93 2268.2 1979.55 2307.76 1981.02 2387.4 1922.52 2388.26 1921.89 2388.92 1921.04 2389.32 1920.06 2389.71 1919.07 2389.82 1918 2389.64 1916.95 2385.91 1896.93 2366.38 1796.67 2346.26 1772.69zM2528.34 1453.12C2527.95 1452.77 2527.44 1452.57 2526.91 1452.57 2526.38 1452.57 2525.87 1452.77 2525.48 1453.12 2511.7 1466.62 2401.09 1579.29 2414.99 1699.83 2429.98 1828.51 2470.4 1804.1 2470.4 1804.1 2470.4 1804.1 2546.28 1773 2558.47 1628.92 2558.47 1628.92 2570.45 1567.04 2593.96 1555.81 2594.34 1555.63 2594.67 1555.37 2594.95 1555.05 2595.22 1554.73 2595.43 1554.36 2595.56 1553.96 2595.69 1553.56 2595.73 1553.13 2595.69 1552.71 2595.65 1552.29 2595.53 1551.89 2595.32 1551.52 2586.46 1536.34 2547.71 1470.45 2528.34 1453.12zM2679.69 1727.81C2679.07 1726.47 2678 1725.39 2676.67 1724.75 2675.33 1724.11 2673.82 1723.95 2672.39 1724.3 2655.22 1728.5 2599.06 1757.17 2561.74 1951.53 2522.68 2154.92 2303.84 2204.61 2244.94 2214.31 2238.3 2215.3 2232.04 2218.04 2226.8 2222.24 2221.56 2226.44 2217.53 2231.96 2215.12 2238.23 2209.96 2252.47 2213.53 2270.79 2252.44 2284.28 2320.85 2308.04 2451.46 2253.81 2491.21 2222.27 2495.99 2218.43 2501 2214.87 2506.2 2211.61 2525.07 2199.95 2572.31 2165.52 2606.49 2095.58 2648.97 2008.51 2657.68 1983.25 2706 1966.06 2707.13 1965.67 2708.11 1964.93 2708.8 1963.96 2709.49 1962.98 2709.85 1961.81 2709.83 1960.61 2709.14 1933.62 2704.79 1781.43 2679.69 1727.81zM2013.42 2231.82C1962.01 2199.79 1838.52 2213.16 1785.78 2218.92 1776.45 2219.91 1769.05 2220.72 1763.57 2221.15 1759.31 2221.5 1755.43 2221.9 1751.69 2222.43 1724.02 2226.35 1675.25 2229.86 1659.39 2209.77 1655.16 2204.42 1651.28 2195.13 1656.72 2181.22 1666.05 2157.47 1713.91 2136.19 1764.94 2119.77 1733 2124.35 1700.07 2129.88 1673.7 2135.73 1643.75 2142.32 1620.83 2143.44 1605.59 2139.06 1601.88 2137.99 1598.45 2136.12 1595.54 2133.59 1592.62 2131.05 1590.3 2127.91 1588.74 2124.38 1587.21 2120.94 1586.45 2117.21 1586.51 2113.45 1586.58 2109.69 1587.46 2105.99 1589.11 2102.61 1603.6 2073.16 1650.13 2055.71 1701.07 2045.36 1677.84 2048.78 1654.05 2053.26 1628.45 2058.98 1614.05 2062.09 1602.48 2065.2 1592.13 2068.31L1591.51 2068.49C1581.68 2071.6 1563.52 2077.26 1552.57 2064.23 1536.28 2044.73 1551.73 2026.42 1557.55 2019.55 1563.48 2013.04 1570.36 2007.47 1577.95 2003 1580.03 2001.63 1582.12 2000.26 1584.17 1998.87 1598.49 1989.2 1613.65 1980.81 1629.45 1973.8L1637.81 1991.84C1623.07 1998.33 1608.94 2006.13 1595.58 2015.13 1593.4 2016.65 1591.13 2018.24 1588.86 2019.61 1582.93 2023.08 1577.51 2027.36 1572.75 2032.33 1564.39 2042.25 1563.43 2046.17 1567.84 2051.51 1570.2 2054.34 1580.62 2051.08 1585.6 2049.52L1586.25 2049.34C1597.14 2045.95 1609.17 2042.81 1624.16 2039.45 1651.56 2033.23 1677.03 2028.59 1701.91 2025.02 1730.71 2020.52 1759.83 2018.29 1788.98 2018.36 1807.23 2018.55 1831.12 2019.76 1854.29 2027.35 1856.89 2028.2 1859.1 2029.95 1860.53 2032.29 1861.96 2034.63 1862.52 2037.4 1862.09 2040.1 1861.69 2042.86 1860.32 2045.38 1858.23 2047.23 1856.14 2049.07 1853.47 2050.12 1850.68 2050.18 1751.16 2052.14 1627.95 2069.3 1607.37 2111.22 1607.01 2112 1606.82 2112.84 1606.82 2113.7 1606.82 2114.55 1607.01 2115.39 1607.37 2116.17 1607.76 2117.04 1608.33 2117.81 1609.05 2118.44 1609.77 2119.07 1610.62 2119.54 1611.53 2119.81 1619.81 2122.2 1636.66 2123.48 1669.87 2116.17 1735.18 2101.74 1846.08 2087.87 1878.01 2088.37 1880.76 2088.35 1883.41 2089.36 1885.44 2091.2 1887.48 2093.03 1888.75 2095.57 1889.01 2098.3 1889.27 2101.03 1888.5 2103.76 1886.85 2105.95 1885.2 2108.14 1882.79 2109.63 1880.1 2110.13 1785.68 2130.41 1685.86 2162.5 1675.69 2188.41 1673.23 2194.63 1674.85 2196.62 1675.44 2197.36 1682 2205.7 1712.42 2207.88 1749.39 2202.68 1753.53 2202.09 1757.79 2201.62 1762.45 2201.25 1767.68 2200.85 1775.3 2200.01 1784.22 2199.07 1843.62 2192.61 1967.27 2179.2 2024.49 2214.87L2013.42 2231.82zM1244.45 1361.26C1227.29 1328.37 1215.17 1293.08 1208.5 1256.58 1193.17 1175.42 1206.92 1099.35 1248.15 1036.59L1264.76 1047.51C1171.96 1188.66 1260.84 1349.88 1261.65 1351.49L1244.45 1361.26zM1427.93 1774.74L1417.73 1757.7C1417.44 1757.85 1417.16 1758.03 1416.92 1758.26 1417.26 1757.95 1425.91 1750.48 1455.73 1703.74 1456.43 1702.65 1457.34 1701.7 1458.41 1700.95 1459.48 1700.2 1460.68 1699.67 1461.95 1699.39 1463.23 1699.11 1464.54 1699.08 1465.82 1699.31 1467.11 1699.53 1468.33 1700.01 1469.43 1700.71 1470.53 1701.41 1471.48 1702.32 1472.23 1703.39 1472.97 1704.46 1473.5 1705.66 1473.78 1706.93 1474.07 1708.21 1474.09 1709.52 1473.87 1710.8 1473.64 1712.09 1473.16 1713.31 1472.46 1714.41 1450.07 1749.55 1434.24 1770.98 1427.93 1774.74zM971.721 1843.09C969.268 1843.1 966.901 1842.19 965.076 1840.56 963.251 1838.92 962.098 1836.66 961.839 1834.22 961.58 1831.78 962.234 1829.33 963.674 1827.35 965.114 1825.36 967.239 1823.98 969.637 1823.47 1123.85 1790.13 1341.54 1506.83 1343.81 1504 1345.41 1501.9 1347.77 1500.53 1350.38 1500.18 1352.99 1499.82 1355.63 1500.52 1357.73 1502.12 1359.82 1503.71 1361.2 1506.08 1361.55 1508.69 1361.9 1511.3 1361.2 1513.94 1359.61 1516.03 1350.53 1527.95 1135.17 1808.02 973.991 1842.88 973.245 1843.04 972.483 1843.11 971.721 1843.09zM1542.22 1265.63C1476.41 1264.48 1473.55 1130.67 1473.43 1115.4 1473.42 1112.77 1474.45 1110.24 1476.3 1108.36 1478.14 1106.49 1480.65 1105.42 1483.29 1105.38 1485.91 1105.38 1488.42 1106.42 1490.28 1108.27 1492.14 1110.11 1493.19 1112.62 1493.21 1115.24 1493.49 1148.77 1502.97 1244.39 1541.87 1245.85 1543.52 1245.61 1558.29 1242.56 1574.96 1213.33 1575.57 1212.12 1576.42 1211.05 1577.45 1210.18 1578.49 1209.32 1579.69 1208.67 1580.98 1208.28 1582.27 1207.89 1583.63 1207.77 1584.97 1207.92 1586.31 1208.08 1587.61 1208.5 1588.78 1209.17 1589.96 1209.84 1590.98 1210.74 1591.79 1211.82 1592.6 1212.89 1593.19 1214.13 1593.51 1215.44 1593.83 1216.75 1593.89 1218.11 1593.66 1219.44 1593.44 1220.77 1592.95 1222.05 1592.22 1223.18 1568.71 1264.33 1544.86 1265.63 1542.22 1265.63zM1605.13 1344.28C1590.45 1344.28 1576.27 1331.84 1571.7 1314.02 1569.25 1304.87 1569.86 1295.17 1573.44 1286.41 1574.98 1282.19 1577.53 1278.4 1580.87 1275.39 1584.21 1272.38 1588.23 1270.22 1592.58 1269.12 1596.94 1268.01 1601.5 1267.98 1605.87 1269.03 1610.24 1270.08 1614.29 1272.18 1617.66 1275.15 1624.91 1281.23 1630.07 1289.43 1632.42 1298.59 1634.76 1307.76 1634.18 1317.43 1630.75 1326.24 1629.07 1330.39 1626.46 1334.09 1623.12 1337.07 1619.77 1340.04 1615.79 1342.2 1611.47 1343.38 1609.4 1343.94 1607.27 1344.24 1605.13 1344.28zM1587.12 1310.07C1590.23 1321.89 1599.56 1330.1 1607.59 1328.05 1609.51 1327.42 1611.27 1326.37 1612.73 1324.96 1614.19 1323.55 1615.32 1321.83 1616.01 1319.93 1618.09 1314.35 1618.41 1308.27 1616.95 1302.49 1615.48 1296.72 1612.29 1291.53 1607.8 1287.62 1606.35 1286.16 1604.55 1285.11 1602.57 1284.57 1600.58 1284.02 1598.5 1284 1596.5 1284.5 1594.51 1285.01 1592.69 1286.02 1591.21 1287.45 1589.72 1288.87 1588.64 1290.66 1588.06 1292.63 1585.88 1298.19 1585.55 1304.31 1587.12 1310.07zM1584.82 1128.26C1597.23 1123.08 1600.85 1103.49 1592.92 1084.5 1584.99 1065.52 1568.5 1054.33 1556.09 1059.51 1543.68 1064.7 1540.05 1084.29 1547.99 1103.28 1555.92 1122.26 1572.41 1133.45 1584.82 1128.26zM1431.89 1192.16C1443.42 1187.33 1446.34 1168.04 1438.41 1149.05 1430.48 1130.07 1414.69 1118.58 1403.16 1123.41 1391.62 1128.23 1388.7 1147.53 1396.63 1166.51 1404.57 1185.49 1420.35 1196.98 1431.89 1192.16zM279.196 1517.34C279.196 1517.34 1058.02 1391.92 1186.05 1416.09L1124.66 1471.35C1124.66 1471.35 536.098 1509.22 329.233 1540.32 329.233 1540.32 375.227 1582.27 326.527 1621.49 326.527 1621.49 899.044 1635.83 1028.1 1566.29L929.303 1665.96C929.303 1665.96 446.908 1645.84 296.766 1656.63 296.766 1656.63 271.079 1649.85 283.923 1624.16 283.923 1624.16 335.328 1588.56 298.819 1545.83L279.196 1517.34z" class="color00068C svgShape"></path><path fill="#00068c" d="M574.753 1495.01C574.753 1495.01 665.528 1549.81 653.027 1581.75 639.872 1615.33 618.819 1621.49 618.819 1621.49H697.808C697.808 1621.49 732.576 1587 697.808 1539.48 663.04 1491.97 646.932 1486.9 646.932 1486.9L574.753 1495.01zM387.76 1645.03V1671.46C387.76 1671.46 260.941 1719.08 310.636 1807.36 310.636 1807.36 326.87 1825.62 334.986 1825.62 334.986 1825.62 275.153 1860.11 279.196 1915.8 283.239 1971.5 311.662 1982.76 328.953 1972.62 328.953 1972.62 337.07 1965.19 339.464 1972.28 341.859 1979.37 334.053 2003.03 355.355 1988.85 355.355 1988.85 605.229 2081.84 622.8 2076.42 622.8 2076.42 633.622 2118.34 653.898 2083.2 653.898 2083.2 790.512 2068.31 813.525 2058.85L710.248 2041.31 649.388 2054C549.069 2034.29 450.883 2004.96 356.195 1966.4 356.195 1966.4 387.138 1872.92 379.021 1834.36L588.965 1875.16 742.528 1862.72 933.221 1658.84H911.453C911.453 1658.84 760.627 1807.64 743.056 1830.62L606.007 1833.33C606.007 1833.33 604.11 1746.94 640.215 1711.71 642.138 1709.83 643.401 1707.38 643.815 1704.72 644.229 1702.06 643.771 1699.35 642.511 1696.97 641.25 1694.6 639.254 1692.7 636.822 1691.55 634.39 1690.41 631.652 1690.08 629.019 1690.62 621.905 1692.79 615.348 1696.49 609.801 1701.44 609.801 1701.44 564.086 1745.91 574.753 1833.17L391.46 1793.28 400.79 1695.19 904.58 1671.59 917.268 1655.82 387.76 1645.03zM773.252 1588.15C771.279 1588.15 769.351 1587.56 767.714 1586.46 766.077 1585.36 764.804 1583.79 764.057 1581.97 763.311 1580.14 763.124 1578.13 763.521 1576.2 763.918 1574.27 764.88 1572.49 766.286 1571.11 775.243 1562.31 779.254 1554.19 778.197 1546.98 776.735 1537.09 765.758 1529.35 761.59 1527.17 759.248 1525.96 757.48 1523.88 756.675 1521.37 755.87 1518.86 756.095 1516.14 757.299 1513.8 758.503 1511.45 760.588 1509.69 763.096 1508.88 765.604 1508.08 768.329 1508.3 770.671 1509.5 771.635 1510 794.461 1521.94 797.82 1543.9 799.966 1557.8 794.026 1571.73 780.187 1585.29 778.341 1587.12 775.85 1588.15 773.252 1588.15z" class="color00068C svgShape"></path><path fill="#00068c" d="M657.381 1859.61C657.381 1859.61 555.939 1940.77 626.936 2059.79L645.19 2067.25C645.19 2067.25 609.365 1954.99 673.614 1859.61H657.381zM2127.11 2287.24L1612.09 2246.75 1308.89 2152.4C1308.89 2152.4 1266 2036.74 1185.99 2152.4 1185.99 2152.4 1085.35 2141.95 999.398 2166.61 999.398 2166.61 805.657 2208.19 824.906 2233.56L805.501 2246.75C805.133 2247 804.857 2247.37 804.714 2247.8 804.572 2248.22 804.57 2248.68 804.71 2249.11 804.85 2249.54 805.123 2249.9 805.49 2250.16 805.857 2250.42 806.297 2250.55 806.745 2250.54 849.785 2248.99 1075.22 2239.6 1175.91 2211.23 1175.91 2211.23 1223.27 2339.05 1330.13 2223.39L1603.48 2324.56C1605.81 2325.42 1608.27 2325.93 1610.76 2326.05L2157 2354.32C2157.75 2354.36 2158.51 2354.21 2159.19 2353.88 2159.87 2353.54 2160.45 2353.04 2160.87 2352.41 2161.3 2351.78 2161.55 2351.05 2161.61 2350.3 2161.66 2349.54 2161.52 2348.78 2161.19 2348.1L2137.65 2294.73C2136.73 2292.65 2135.27 2290.86 2133.41 2289.54 2131.56 2288.22 2129.38 2287.42 2127.11 2287.24zM1242.9 2213.78C1240.84 2213.05 1238.82 2212.2 1236.86 2211.23 1203.71 2195 1211.15 2171.99 1211.15 2171.99 1211.15 2171.99 1211.95 2138.53 1250.73 2142.26 1261.44 2142.91 1271.52 2147.54 1279 2155.23 1304.38 2181.91 1277.63 2225.91 1242.9 2213.78z" class="color00068C svgShape"></path><path fill="#00068c" d="M874.073 2214.13L855.01 2208.53L875.597 2138.56C877.55 2131.93 881.214 2125.94 886.221 2121.19C891.227 2116.43 897.399 2113.08 904.114 2111.47C985.871 2092.1 1127.03 2060.13 1153.58 2063.52C1189.78 2068.12 1211.61 2099.5 1219.95 2127.3L1200.91 2133.02C1194.69 2112.19 1177.87 2086.62 1151.16 2083.27C1134.74 2081.21 1039.64 2099.87 908.779 2130.88C905.476 2131.68 902.442 2133.33 899.98 2135.67C897.519 2138.01 895.716 2140.96 894.753 2144.22L874.073 2214.13Z" class="color00068C svgShape"></path><path fill="#00068c" d="M1249.74 2108.77L1274.4 2113.83C1274.4 2113.83 1290.63 2043.83 1329.16 2018.49C1367.69 1993.14 1443.79 2011.37 1481.85 2044.86C1509.47 2069.05 1523.5 2092.84 1548.65 2123.94C1561.78 2141.3 1571.6 2160.91 1577.64 2181.82C1585.47 2213.97 1598.5 2249.2 1596.45 2252.75C1592.94 2258.97 1611.19 2258.97 1611.19 2258.97C1611.19 2258.97 1622.08 2176.28 1564.33 2088.24C1547.53 2062.8 1524.98 2041.67 1498.49 2026.57C1477.31 2014.48 1450.79 1999.95 1435.52 1994.2C1407.28 1983.53 1343.37 1964.28 1295.58 2024.65L1276.92 2050.49C1276.92 2050.49 1262.71 1979.89 1229.24 1938.07C1227.25 1935.58 1225.29 1933.09 1223.46 1930.48C1218.58 1923.42 1205.83 1907 1188.13 1897.98C1185.32 1896.55 1182.18 1895.88 1179.02 1896.05L1155.95 1897.55C1154.55 1897.55 1150.38 1902.03 1151.62 1902.65C1174.73 1914.06 1260.28 1978.43 1255.46 2046.6C1255.46 2046.6 1200.29 1922.46 1037.49 1964.41L1034.82 1978.93C1034.67 1980.06 1034.78 1981.21 1035.14 1982.29C1035.5 1983.37 1036.1 1984.36 1036.9 1985.18C1037.7 1985.99 1038.67 1986.62 1039.74 1987.01C1040.81 1987.4 1041.96 1987.54 1043.09 1987.42C1075.68 1984.31 1132.87 1973.89 1200.32 2014.48C1200.32 2014.48 1233.78 2035.5 1235.84 2069.77L1242.06 2106.81L1224.3 2116.94C1224.3 2116.94 1194.38 2030.21 1109.67 2049.99C1109.67 2049.99 1043.34 2053.1 985.279 2074.15C975.632 2077.64 965.722 2080.36 955.643 2082.27C931.075 2086.97 892.234 2092.56 904.269 2078.38C904.269 2078.38 949.796 2015.13 974.271 2003.31L964.63 1997.09C964.63 1997.09 892.078 2048.81 889.062 2080.78C886.045 2112.75 964.63 2100.9 964.63 2100.9C964.63 2100.9 1133.93 2065.01 1161.89 2075.18C1189.84 2085.35 1221.28 2126.43 1221.28 2126.43L1249.74 2108.77Z" class="color00068C svgShape"></path><path fill="#00068c" d="M1345.33 2010.25L1332.27 1995.29C1379.17 1954.24 1520.48 1953.77 1526.48 1953.77V1973.64C1487.7 1973.64 1379.64 1980.24 1345.33 2010.25Z" class="color00068C svgShape"></path><path fill="#00068c" d="M1368.32 1993.52C1366.92 1992.83 1227.13 1923.33 1192.86 1910.8L1199.7 1892.14C1234.97 1905.04 1371.39 1972.99 1377.18 1975.73L1368.32 1993.52zM1299.12 1582.99C1299.12 1582.99 1471.37 1630.04 1338.8 1760.84 1280.15 1818.68 1098.73 1888 1083.27 1848.85 1071.64 1819.43 1174.26 1794.39 1204.18 1769.02 1230.33 1746.81 1286.06 1703.31 1268.93 1682.53 1243.64 1651.9 1216.06 1672.68 1216.06 1672.68L1299.12 1582.99z" class="color00068C svgShape"></path></svg></g></svg>