<svg id="SvgjsSvg1312" width="256" height="256" xmlns="http://www.w3.org/2000/svg" version="1.1" xmlns:xlink="http://www.w3.org/1999/xlink" xmlns:svgjs="http://svgjs.com/svgjs"><defs id="SvgjsDefs1313"></defs><g id="SvgjsG1314"><svg xmlns="http://www.w3.org/2000/svg" enable-background="new 0 0 4500 4500" viewBox="0 0 4500 4500" width="256" height="256"><circle cx="2250" cy="2250" r="1895.143" fill="#ffffff" class="colorfff svgShape"></circle><path fill="#212121" d="M2250,4159.44c-129.544,0-259.011-13.052-384.804-38.793
			c-122.604-25.088-243.2-62.523-358.441-111.266c-113.146-47.856-222.273-107.089-324.352-176.052
			c-101.105-68.306-196.179-146.749-282.582-233.151s-164.846-181.477-233.151-282.582
			c-68.963-102.079-128.195-211.206-176.052-324.352c-48.743-115.24-86.178-235.838-111.266-358.441
			c-25.741-125.793-38.793-255.26-38.793-384.804s13.052-259.011,38.793-384.804c25.088-122.604,62.523-243.2,111.266-358.441
			c47.856-113.146,107.089-222.273,176.052-324.352c68.306-101.105,146.749-196.179,233.151-282.582
			s181.477-164.846,282.582-233.151c102.079-68.963,211.206-128.195,324.352-176.052c115.241-48.743,235.837-86.178,358.441-111.266
			c125.793-25.741,255.26-38.793,384.804-38.793s259.011,13.052,384.804,38.793c122.604,25.088,243.201,62.523,358.441,111.266
			c113.145,47.856,222.272,107.089,324.352,176.052c101.105,68.306,196.18,146.749,282.582,233.151s164.847,181.477,233.151,282.582
			c68.964,102.079,128.195,211.206,176.052,324.352c48.743,115.241,86.179,235.837,111.267,358.441
			c25.741,125.793,38.793,255.26,38.793,384.804s-13.052,259.011-38.793,384.804c-25.088,122.604-62.523,243.201-111.267,358.441
			c-47.856,113.146-107.088,222.272-176.052,324.352c-68.305,101.105-146.749,196.18-233.151,282.582
			s-181.477,164.846-282.582,233.151c-102.079,68.963-211.207,128.195-324.352,176.052
			c-115.24,48.742-235.838,86.178-358.441,111.266C2509.011,4146.389,2379.544,4159.44,2250,4159.44z M2250,369.155
			c-1037.102,0-1880.845,843.744-1880.845,1880.845S1212.898,4130.845,2250,4130.845S4130.846,3287.101,4130.846,2250
			S3287.102,369.155,2250,369.155z" class="color212121 svgShape"></path><g fill="#000000" class="color000 svgShape"><path fill="#212121" d="M1847.859,3224.726c-188.144-97.689-470.909,28.78-639.161,205.57
				c-40.789,42.857-116.394,133.103-207.465,245.137c247.367,216.884,551.65,370.345,887.55,435.178
				c38.077-62.223,71.176-117.272,97.154-161.69C2155.712,3658.637,2074.952,3342.638,1847.859,3224.726z" class="color212121 svgShape"></path><path fill="#212121" d="M1888.785,4124.909c-0.899,0-1.807-0.085-2.712-0.26
				c-166.669-32.17-328.365-86.604-480.597-161.79c-149.072-73.625-288.251-166.713-413.67-276.676
				c-5.781-5.069-6.519-13.803-1.668-19.77c100.614-123.775,170.664-206.534,208.203-245.977
				c87.342-91.774,203.115-168.064,317.633-209.309c61.404-22.115,120.645-33.774,176.076-34.653
				c60.485-0.952,115.107,11.007,162.397,35.561c104.651,54.338,181.44,150.543,216.221,270.893
				c20.94,72.458,25.843,149.53,14.571,229.078c-11.844,83.582-41.102,165.721-86.962,244.133
				c-25.707,43.954-58.444,98.438-97.3,161.934C1898.348,4122.371,1893.696,4124.909,1888.785,4124.909z M1021.052,3673.728
				c246.061,212.569,543.18,357.894,860.72,420.94c36.49-59.713,67.362-111.141,91.823-152.966
				c86.273-147.511,110.992-307.62,69.603-450.834c-32.585-112.749-104.297-202.761-201.927-253.453
				c-106.253-55.171-230.275-30.115-315.606,0.618c-110.474,39.788-222.229,113.457-306.609,202.119
				C1183.112,3477.917,1116.522,3556.471,1021.052,3673.728z" class="color212121 svgShape"></path><path fill="#ffffff" d="M3289.401,3236.377c-172.992-113.607-532.85-132.843-789.232-129.855l-468.209,5.458
					c-78.189,0.911-154.049,11.853-226.718,30.019c-325.965,81.486-580.249,316.943-703.224,615.847
					c318.599,242.935,716.402,387.298,1147.982,387.298c493.503,0,942.893-188.687,1280.116-497.781
					c-15.434-126.508-54.836-237.788-151.743-335.072C3347.071,3280.864,3316.773,3254.354,3289.401,3236.377z" class="colorfff svgShape"></path><path fill="#212121" d="M2250,4159.44c-212.73,0-421.667-34.764-621.008-103.326
					c-192.664-66.265-372.88-162.792-535.643-286.899c-5.149-3.927-7.017-10.822-4.553-16.811
					c31.04-75.444,70.562-147.338,117.468-213.681c47.009-66.488,101.428-127.392,161.746-181.02
					c61.263-54.468,128.688-101.487,200.401-139.752c73.678-39.312,152.193-69.534,233.365-89.826
					c77.302-19.323,154.691-29.565,230.019-30.443l468.209-5.458c160.473-1.87,304.433,5.304,427.895,21.322
					c165.812,21.514,290.081,58.818,369.354,110.879c26.451,17.371,57.152,43.538,91.252,77.773
					c47.772,47.958,83.57,100.635,109.438,161.039c22.692,52.99,37.86,112.651,46.368,182.392c0.56,4.582-1.128,9.152-4.531,12.271
					c-85.004,77.914-177.505,148.48-274.935,209.741c-98.471,61.915-203.073,115.01-310.904,157.809
					C2729.939,4114.36,2493.1,4159.44,2250,4159.44z M1119.477,3753.138c327.98,247.15,718.632,377.707,1130.522,377.707
					c469.222,0,918.181-173.638,1265.002-489.046c-17.834-136.844-63.264-235.599-146.76-319.419
					c-32.712-32.843-61.882-57.759-86.689-74.052l0,0c-75.626-49.665-195.851-85.471-357.336-106.423
					c-122.135-15.848-264.743-22.941-423.881-21.087l-468.21,5.458c-73.104,0.852-148.273,10.809-223.417,29.592
					C1502.579,3232.397,1245.688,3455.255,1119.477,3753.138z" class="color212121 svgShape"></path><path fill="#212121" d="M1906.421 3547.714c-3.019 0-6.002-.956-8.492-2.795-3.712-2.74-5.874-7.103-5.805-11.716l3.241-217.164c.117-7.823 6.495-14.085 14.292-14.085.073 0 .145 0 .218.002 7.896.117 14.201 6.613 14.083 14.509l-2.942 197.18 230.567-74.858c7.51-2.441 15.576 1.673 18.015 9.184 2.438 7.511-1.673 15.575-9.184 18.014l-249.577 81.031C1909.391 3547.484 1907.901 3547.714 1906.421 3547.714zM2522.26 3562.84c-1.479 0-2.968-.229-4.414-.698-83.393-27.076-211.559-94.254-216.974-97.101-6.99-3.675-9.678-12.319-6.004-19.309 3.675-6.989 12.318-9.675 19.309-6.004 1.263.664 123.095 64.522 204.428 92.513 42.934-45.977 58.351-170.658 60.685-216.71.399-7.887 7.137-13.972 15-13.558 7.886.398 13.956 7.111 13.56 14.997-.095 1.865-2.416 46.294-12.532 98.077-13.951 71.411-35.396 119.973-63.734 144.336C2528.951 3561.646 2525.633 3562.84 2522.26 3562.84zM2126.827 3986.907c-.021 0-.04 0-.061 0-7.896-.033-14.271-6.461-14.238-14.357.434-103.51 5.911-208.117 16.279-310.917 4.477-44.392 9.954-89.302 16.277-133.483 1.119-7.816 8.364-13.25 16.18-12.127 7.817 1.118 13.247 8.362 12.128 16.18-6.268 43.789-11.696 88.302-16.134 132.3-10.276 101.891-15.705 205.572-16.135 308.167C2141.09 3980.545 2134.695 3986.907 2126.827 3986.907zM2280.786 3719.907c-38.491 0-69.805-31.314-69.805-69.805s31.314-69.805 69.805-69.805c38.49 0 69.805 31.314 69.805 69.805S2319.276 3719.907 2280.786 3719.907zM2280.786 3608.894c-22.723 0-41.209 18.486-41.209 41.209s18.486 41.209 41.209 41.209 41.209-18.486 41.209-41.209S2303.509 3608.894 2280.786 3608.894zM2280.786 3905.47c-38.491 0-69.805-31.314-69.805-69.805s31.314-69.805 69.805-69.805c38.49 0 69.805 31.314 69.805 69.805S2319.276 3905.47 2280.786 3905.47zM2280.786 3794.456c-22.723 0-41.209 18.486-41.209 41.209s18.486 41.209 41.209 41.209 41.209-18.486 41.209-41.209S2303.509 3794.456 2280.786 3794.456zM1806.389 3122.104c-1.922.466-3.843.94-5.766 1.421-328.014 81.998-588.014 317.667-714.59 622.066 162.339 126.523 345.815 227.152 544.242 295.787-1.686-253.003 46.277-560.247 136.031-780.228 17.239-42.25 35.615-82.423 54.753-120.608C1826.007 3130.671 1817.119 3119.498 1806.389 3122.104z" class="color212121 svgShape"></path><path fill="#212121" d="M1630.275,4055.676c-1.571,0-3.149-0.259-4.673-0.785
						c-198.012-68.492-382.506-168.762-548.358-298.022c-5.078-3.958-6.885-10.822-4.413-16.768
						c31.876-76.658,72.417-149.637,120.497-216.909c47.986-67.14,103.505-128.632,165.015-182.768
						c62.21-54.751,130.628-102.039,203.353-140.55c74.433-39.416,153.653-69.771,235.459-90.221
						c1.954-0.488,3.906-0.97,5.858-1.443c0,0,0.001,0,0.001-0.001c10.439-2.53,21.08,1.118,27.774,9.53
						c6.696,8.413,7.866,19.605,3.053,29.209c-19.621,39.15-37.889,79.391-54.296,119.603
						c-83.76,205.291-136.74,509.392-134.972,774.731c0.031,4.642-2.193,9.009-5.964,11.714
						C1636.148,4054.762,1633.227,4055.676,1630.275,4055.676z M1103.48,3741.021c155.785,119.979,328.045,214.148,512.467,280.158
						c0.432-123.048,12.111-255.564,33.957-384.684c24.187-142.95,59.86-274.61,103.165-380.747
						c16.33-40.022,34.472-80.071,53.94-119.076c-0.973,0.239-1.946,0.48-2.919,0.724
						C1493.309,3215.087,1232.16,3440.33,1103.48,3741.021z" class="color212121 svgShape"></path><path fill="#ffffff" d="M1222.45,3753.554c-2.727,0-5.481-0.778-7.919-2.404c-6.57-4.381-8.344-13.259-3.963-19.828
					c53.471-80.182,112.343-157.893,174.979-230.976c45.182-52.717,93.25-104.102,142.869-152.727
					c5.639-5.528,14.692-5.436,20.219,0.204c5.527,5.641,5.436,14.692-0.205,20.22c-49.029,48.047-96.526,98.821-141.17,150.912
					c-61.892,72.214-120.064,149.002-172.9,228.231C1231.604,3751.318,1227.069,3753.554,1222.45,3753.554z" class="colorfff svgShape"></path><g fill="#000000" class="color000 svgShape"><path fill="#212121" d="M2611.571,4110.542c401.99-77.667,758.658-282.324,1026.662-570.623
						c-37.516-47.043-205.222-243.497-338.378-319.458c-133.157-75.961-413.583-120.589-640.126-130.07
						c-13.492-0.564-24.685,10.197-24.592,23.701c0.946,138.99-0.431,282.039-4.634,429.046
						C2626.449,3684.888,2620.007,3935.466,2611.571,4110.542z" class="color212121 svgShape"></path><path fill="#212121" d="M2611.571,4124.841c-3.41,0-6.741-1.221-9.363-3.492c-3.316-2.874-5.129-7.111-4.918-11.494
						c7.269-150.853,12.958-354.347,17.113-502.931c0.647-23.137,1.25-44.694,1.808-64.193
						c4.044-141.445,5.602-285.627,4.628-428.54c-0.071-10.467,4.028-20.229,11.545-27.487c7.423-7.167,17.631-11.044,27.942-10.597
						c119.601,5.005,246.439,19.333,357.151,40.344c126.367,23.981,226.462,55.653,289.462,91.593
						c127.804,72.907,290.549,257.853,342.473,322.962c4.413,5.534,4.113,13.465-0.707,18.649
						c-135.922,146.216-292.897,269.704-466.567,367.036c-177.394,99.419-368.447,169.363-567.854,207.891
						C2613.382,4124.756,2612.474,4124.841,2611.571,4124.841z M2658.721,3104.668c-2.438,0-4.725,0.917-6.473,2.606
						c-1.832,1.769-2.831,4.155-2.813,6.72c0.976,143.25-0.586,287.772-4.64,429.554c-0.558,19.493-1.16,41.045-1.807,64.176
						c-3.993,142.797-9.403,336.263-16.274,485.243c381.494-77.489,724.112-268.593,992.584-553.735
						c-57.891-70.858-208.366-238.943-326.528-306.351c-132.882-75.804-413.991-119.011-633.639-128.204
						C2658.994,3104.671,2658.857,3104.668,2658.721,3104.668z" class="color212121 svgShape"></path><path fill="#ffffff" d="M3099.109,3768.835c-5.138,0-10.103-2.776-12.663-7.638
					c-44.378-84.253-94.318-166.633-148.433-244.852c-39.034-56.418-81.039-111.82-124.851-164.67
					c-5.039-6.079-4.196-15.093,1.883-20.133c6.078-5.04,15.092-4.197,20.133,1.883c44.337,53.484,86.848,109.554,126.351,166.65
					c54.767,79.159,105.307,162.53,150.218,247.795c3.68,6.986,0.999,15.634-5.987,19.313
					C3103.635,3768.304,3101.354,3768.835,3099.109,3768.835z" class="colorfff svgShape"></path></g><g fill="#000000" class="color000 svgShape"><path fill="#212121" d="M2591.106,1256.415c-184.878-1.512-936.039,238.37-1057.727,281.709l160.4,368.953v768.054
					h1127.119c140.014,0,253.52-113.506,253.52-253.52v-681.883C3074.418,1472.802,2790.395,1258.045,2591.106,1256.415z" class="color212121 svgShape"></path><path fill="#212121" d="M2820.898,2689.429H1693.779c-7.896,0-14.298-6.401-14.298-14.298v-765.08l-159.215-366.226
					c-1.579-3.632-1.581-7.757-0.005-11.391s4.589-6.45,8.32-7.779c59.974-21.359,276.728-91.831,506.003-157.942
					c198.688-57.292,456.587-125.437,556.638-124.595c50.907,0.417,108.077,14.222,165.33,39.922
					c56.927,25.555,112.449,62.198,160.563,105.97c51.06,46.451,93.426,100.833,122.518,157.27
					c32.568,63.18,49.082,128.602,49.082,194.449v681.883c0,71.536-27.857,138.791-78.442,189.375
					S2892.435,2689.429,2820.898,2689.429z M1708.077,2660.833h1112.821c131.908,0,239.223-107.314,239.223-239.222v-681.883
					c0-265.424-284.593-467.506-469.132-469.016c-0.551-0.004-1.112-0.007-1.676-0.007c-77.573,0-266.526,42.665-546.806,123.483
					c-212.984,61.414-414.928,126.526-489.879,152.353l154.263,354.834c0.782,1.799,1.186,3.739,1.186,5.701V2660.833z" class="color212121 svgShape"></path><path fill="#c7b9be" d="M2578.882,3240.899c0,150.758-520.158,176.056-520.158,0l0-416.125h520.157L2578.882,3240.899z" class="colorc7b9be svgShape"></path><path fill="#212121" d="M2303.778,3377.936c-67.75,0-129.937-10.954-175.105-30.844
					c-55.115-24.269-84.247-60.989-84.247-106.192v-416.126c0-7.896,6.401-14.298,14.298-14.298h520.157
					c7.896,0,14.298,6.401,14.298,14.298l0.001,416.126c0,22.728-9.5,43.702-28.236,62.34
					c-16.128,16.044-38.907,30.057-67.706,41.648C2445.062,3365.89,2374.549,3377.936,2303.778,3377.936z M2073.022,2839.071
					v401.828c0,33.471,22.601,60.395,67.175,80.021c41.617,18.326,99.711,28.418,163.582,28.418
					c67.251,0,133.872-11.291,182.781-30.979c29.138-11.729,78.019-37.394,78.024-77.461l-0.001-401.828H2073.022z" class="color212121 svgShape"></path><path fill="#c7b9be" d="M2945.4,2058.479l-117.405-0.069c0,0,0.051-85.887,0.051-85.887
						c0.136-232.897-188.554-421.807-421.45-421.944l-348.508-0.204c-232.897-0.136-421.807,188.553-421.943,421.45l-0.344,587.584
						c-0.12,203.117,144.475,377.939,344.217,414.809c162.229,29.945,338.622,30.495,508.199-2.248
						c197.465-38.128,339.368-212.278,339.486-413.39l0.052-89.979c0.001,0,117.405,0.07,117.405,0.07
						c113.273,0.066,205.179-91.732,205.246-205.005C3150.471,2150.393,3058.673,2058.545,2945.4,2058.479z" class="colorc7b9be svgShape"></path><path fill="#212121" d="M2227.822,3010.946c-84.304,0.001-168.509-7.552-250.4-22.668
						c-206.358-38.091-356.044-218.46-355.92-428.878l0.344-587.584c0.034-58.853,11.597-115.946,34.368-169.693
						c21.99-51.907,53.453-98.514,93.512-138.527c40.06-40.013,86.704-71.42,138.636-93.35
						c53.692-22.672,110.711-34.169,169.468-34.169c0.09,0,0.175,0,0.265,0l348.509,0.204
						c58.853,0.035,115.945,11.598,169.692,34.368c51.907,21.991,98.515,53.453,138.527,93.513
						c40.013,40.06,71.42,86.704,93.351,138.636c22.707,53.774,34.203,110.881,34.169,169.733l-0.042,71.589l103.107,0.061
						c58.604,0.034,113.69,22.881,155.109,64.332c41.424,41.457,64.219,96.561,64.185,155.161
						c-0.072,120.946-98.493,219.294-219.422,219.295c-0.044,0-0.086,0-0.131,0l-103.105-0.061l-0.045,75.681
						c-0.03,51.041-8.84,101.152-26.184,148.943c-16.895,46.551-41.385,89.591-72.792,127.924
						c-31.459,38.396-68.831,70.814-111.077,96.354c-43.494,26.294-90.94,44.529-141.02,54.199
						C2404.846,3002.63,2316.28,3010.946,2227.822,3010.946z M2057.833,1564.673c-108.73,0-210.962,42.31-287.898,119.156
						c-76.992,76.902-119.429,179.184-119.493,288.004l-0.344,587.585c-0.116,196.617,139.727,365.153,332.515,400.739
						c164.345,30.337,338.243,29.566,502.893-2.227c189.883-36.663,327.784-204.618,327.898-399.359l0.053-89.979
						c0.002-3.792,1.511-7.428,4.193-10.107c2.682-2.678,6.315-4.182,10.104-4.182c0.003,0,0.006,0,0.009,0l117.404,0.069
						c0.031,0,0.081,0,0.113,0c105.178,0.01,190.764-85.525,190.826-190.716c0.061-105.19-85.494-190.819-190.715-190.88
						c-0.001,0-0.001,0-0.001,0l-117.405-0.069c-3.792-0.002-7.428-1.511-10.107-4.194s-4.184-6.32-4.182-10.113l0.051-85.886
						c0.131-224.64-182.521-407.505-407.161-407.638l-348.508-0.204C2057.999,1564.673,2057.913,1564.673,2057.833,1564.673z" class="color212121 svgShape"></path><path fill="#212121" d="M2945.281,2383.881c-0.024,0-0.048,0-0.072,0l-18.317-0.011
					c-7.896-0.005-14.294-6.41-14.289-14.307c0.005-7.894,6.405-14.289,14.298-14.289c0.003,0,0.006,0,0.009,0l18.317,0.011
					c0.015,0,0.039,0,0.054,0c50.563,0.004,91.709-41.116,91.739-91.686c0.028-50.553-41.102-91.705-91.687-91.735l-18.317-0.011
					c-7.896-0.004-14.294-6.41-14.289-14.306c0.005-7.894,6.405-14.29,14.298-14.29c0.003,0,0.006,0,0.009,0l18.317,0.011
					c66.352,0.039,120.303,54.026,120.265,120.347C3065.575,2329.945,3011.6,2383.88,2945.281,2383.881z" class="color212121 svgShape"></path><g fill="#000000" class="color000 svgShape"><path fill="#212121" d="M1942.509 2193.014c-.806 43.24-36.514 77.639-79.754 76.832-43.241-.807-77.639-36.514-76.832-79.754.806-43.24 36.514-77.639 79.754-76.832C1908.916 2114.066 1943.316 2149.773 1942.509 2193.014zM2423.498 2193.014c-.806 43.24-36.514 77.639-79.754 76.832-43.24-.807-77.639-36.514-76.832-79.754.806-43.24 36.514-77.639 79.754-76.832C2389.906 2114.066 2424.305 2149.774 2423.498 2193.014zM2130.133 2489.6c-.091 0-.181-.001-.272-.002l-99.472-1.856c-7.896-.147-14.176-6.668-14.029-14.562 2.591-138.854 50.86-261.349 52.914-266.495 2.926-7.334 11.243-10.909 18.579-7.981 7.333 2.926 10.906 11.241 7.982 18.575l0 0c-.466 1.17-45.021 114.402-50.445 242.143l85.004 1.586c7.896.147 14.176 6.668 14.029 14.562C2144.277 2483.373 2137.905 2489.6 2130.133 2489.6zM2099 2656.614c-54.829 0-94.494-9.95-96.547-10.476-7.65-1.957-12.265-9.745-10.308-17.396 1.957-7.646 9.739-12.263 17.384-10.311l0 0c.58.146 58.869 14.667 129.528 7.63 69.873-6.964 127.327-45.284 127.899-45.671 6.545-4.417 15.432-2.694 19.851 3.851 4.418 6.545 2.694 15.433-3.851 19.851-2.581 1.742-64.085 42.753-141.064 50.425C2126.904 2656.011 2112.49 2656.614 2099 2656.614zM2395.197 2427.199c-2.213 0-4.457-.515-6.558-1.602-7.014-3.628-9.758-12.255-6.13-19.269l40.744-78.769c3.628-7.015 12.256-9.759 19.269-6.13 7.014 3.628 9.758 12.255 6.13 19.269l-40.744 78.769C2405.367 2424.381 2400.372 2427.199 2395.197 2427.199zM2444.313 2428.115c-2.213 0-4.457-.515-6.558-1.602-7.014-3.628-9.758-12.255-6.13-19.269l40.744-78.768c3.628-7.015 12.255-9.759 19.269-6.13 7.014 3.628 9.758 12.255 6.13 19.269l-40.744 78.768C2454.483 2425.297 2449.488 2428.115 2444.313 2428.115zM2493.429 2429.032c-2.213 0-4.457-.515-6.558-1.602-7.014-3.628-9.758-12.255-6.13-19.269l40.744-78.768c3.628-7.014 12.255-9.759 19.269-6.13 7.014 3.628 9.758 12.255 6.13 19.269l-40.744 78.768C2503.599 2426.214 2498.604 2429.032 2493.429 2429.032zM1850.55 2429.033c-5.366 0-10.508-3.035-12.945-8.211l-37.777-80.232c-3.364-7.145-.299-15.663 6.845-19.026 7.144-3.365 15.663-.299 19.026 6.845l37.777 80.232c3.364 7.145.299 15.663-6.845 19.026C1854.664 2428.594 1852.59 2429.033 1850.55 2429.033zM1801.435 2428.117c-5.366 0-10.508-3.035-12.946-8.211l-37.776-80.232c-3.364-7.145-.299-15.663 6.845-19.026 7.145-3.365 15.663-.298 19.027 6.845l37.776 80.232c3.364 7.145.299 15.663-6.845 19.026C1805.548 2427.678 1803.475 2428.117 1801.435 2428.117zM1752.319 2427.201c-5.366 0-10.508-3.035-12.946-8.211l-37.777-80.233c-3.364-7.145-.299-15.663 6.845-19.026 7.146-3.364 15.663-.299 19.027 6.845l37.777 80.233c3.364 7.145.299 15.663-6.845 19.026C1756.432 2426.762 1754.359 2427.201 1752.319 2427.201zM1982.71 2066.36h-236.989c-28.687 0-51.943-23.255-51.943-51.942 0-28.688 23.255-51.943 51.943-51.943h236.989c28.687 0 51.942 23.255 51.942 51.943C2034.653 2043.105 2011.397 2066.36 1982.71 2066.36zM2463.7 2066.36h-236.989c-28.688 0-51.943-23.255-51.943-51.942 0-28.688 23.255-51.943 51.943-51.943H2463.7c28.688 0 51.943 23.255 51.943 51.943C2515.643 2043.105 2492.387 2066.36 2463.7 2066.36z" class="color212121 svgShape"></path></g><g fill="#000000" class="color000 svgShape"><path fill="#212121" d="M2913.327,1456.886c-5.302-13.244-12.281-27.996-21.636-43.37
					c-118.81-195.227-450.773-216.349-531.154-219.032c-110.211-3.679-169.191,13.226-253.713-29.205
					c-60.304-30.273-80.811-64.246-142.371-83.962c-78.627-25.182-155.839-5.199-209.906,16.427
					c14.692,2.859,49.627,11.753,80.311,41.981c21.135,20.82,31.505,43.145,36.505,56.582
					c-23.055-7.505-151.368-46.797-284.742,23.73c-148.086,78.305-182.382,228.521-186.787,249.453
					c11.448-7.444,45.678-27.564,92.481-24.337c34.801,2.4,59.948,16.563,71.794,24.337
					c-144.911,88.798-222.382,234.253-195.912,362.62c13.306,64.529,50.217,111.842,80.616,141.763
					c-0.737-7.294-1.216-21.88,5.476-38.331c5.706-14.031,14.115-23.239,19.269-28.1c0.633,18.811,6.911,143.737,111.238,225.229
					c67.313,52.581,139.722,59.177,167.925,60.234c-27.113-35.954-97.277-139.061-96.739-284.742
					c0.085-22.873,1.938-44.39,4.91-64.465c45.135-118.234,146.452-221.365,264.293-221.365h547.902
					c167.605,0,303.476,135.87,303.476,303.475v83.472c0,27.133,21.995,49.128,49.128,49.128h87.623v-539.107L2913.327,1456.886z" class="color212121 svgShape"></path><path fill="#212121" d="M1752.724,2207.205c-0.179,0-0.358-0.003-0.539-0.01
					c-37.352-1.401-109.912-11.481-176.191-63.254c-46.151-36.05-79.546-84.108-99.256-142.839
					c-6.003-17.887-9.975-34.556-12.596-49.094c-1.708,8.079-1.628,15.234-1.103,20.429c0.606,5.995-2.611,11.726-8.044,14.331
					c-5.434,2.604-11.916,1.523-16.211-2.703c-44.833-44.127-73.293-94.28-84.59-149.065
					c-13.709-66.487-1.572-137.655,35.101-205.811c32.941-61.22,83.427-115.691,146.837-158.668
					c-12.205-5.368-27.289-9.895-44.8-11.102c-39.158-2.698-69.25,12.663-83.703,22.06c-4.845,3.151-11.11,3.075-15.877-0.192
					c-4.767-3.267-7.099-9.083-5.909-14.738c3.378-16.053,14.134-58.633,40.993-107.188c36.837-66.593,88.348-117.72,153.102-151.96
					c58.534-30.952,122.785-45.338,190.962-42.775c24.642,0.928,49.885,4.236,73.525,9.542c-5.643-8.825-12.23-16.994-19.601-24.254
					c-25.014-24.642-53.509-34.338-73.009-38.133c-6.225-1.211-10.907-6.377-11.503-12.69c-0.597-6.313,3.037-12.265,8.924-14.62
					c80.235-32.094,154.111-37.734,219.577-16.769c37.571,12.033,60.536,28.901,84.848,46.759
					c17.196,12.631,34.978,25.692,59.576,38.041c59.003,29.621,105.087,28.778,168.879,27.61
					c23.136-0.423,49.362-0.903,78.896,0.083c50.318,1.68,150.295,8.828,254.521,37.827c61.925,17.23,116.329,39.782,161.703,67.029
					c55.432,33.287,98.048,74.008,126.666,121.032c8.701,14.3,16.338,29.604,22.696,45.49c0.677,1.691,1.025,3.495,1.024,5.316
					l-0.013,62.416v539.104c0,7.896-6.401,14.298-14.298,14.298h-87.623c-34.973,0-63.426-28.453-63.426-63.426v-83.472
					c0-159.453-129.725-289.178-289.179-289.178h-547.901c-116.857,0-209.764,105.58-250.376,210.709
					c-2.931,20.298-4.455,40.769-4.529,60.876c-0.485,131.279,58.596,229.322,93.857,276.081c3.323,4.407,3.813,10.333,1.259,15.225
					C1762.926,2204.256,1758.033,2207.205,1752.724,2207.205z M1473.562,1893.145c1.833,0,3.681,0.353,5.44,1.077
					c5.196,2.139,8.658,7.125,8.847,12.741c0.761,22.61,9.437,139.21,105.749,214.443c45.289,35.377,93.94,49.232,129.639,54.439
					c-36.598-55.686-81.992-148.83-81.553-267.733c0.082-21.979,1.785-44.355,5.063-66.505c0.152-1.028,0.416-2.036,0.786-3.006
					c23.864-62.513,62.485-119.553,108.749-160.615c51.559-45.761,109.965-69.949,168.902-69.949h547.901
					c84.881,0,164.681,33.054,224.7,93.074c60.021,60.02,93.074,139.819,93.074,224.7v83.472c0,19.206,15.625,34.831,34.83,34.831
					h73.325v-524.81l0.012-59.626c-5.562-13.517-12.132-26.533-19.553-38.727c-112.303-184.535-425.96-209.055-519.416-212.174
					c-28.799-0.961-54.628-0.488-77.419-0.072c-65.331,1.194-116.927,2.139-182.231-30.646
					c-26.754-13.431-46.37-27.838-63.675-40.55c-23.35-17.151-43.516-31.963-76.642-42.573
					c-48.379-15.495-102.413-14.634-161.068,2.499c15.084,7.174,30.976,17.437,45.869,32.108
					c17.434,17.173,31.221,38.537,39.871,61.781c1.913,5.142,0.716,10.925-3.082,14.885c-3.798,3.959-9.526,5.399-14.744,3.698
					c-33.479-10.897-152.152-41.462-273.632,22.774c-109.171,57.728-154.291,156.896-171.25,209.417
					c18.728-7.381,43.02-13.149,71.244-11.205c35.142,2.423,62.169,15.829,78.655,26.648c4.093,2.686,6.527,7.28,6.452,12.175
					c-0.076,4.896-2.651,9.412-6.826,11.969c-138.622,84.945-214.728,224.611-189.379,347.542
					c8.231,39.918,26.796,77.267,55.305,111.365c0.974-3.543,2.155-7.029,3.54-10.433c5.052-12.421,12.902-23.873,22.704-33.115
					C1466.454,1894.491,1469.98,1893.145,1473.562,1893.145z" class="color212121 svgShape"></path></g></g></g></svg></g></svg>